<svg width="226" height="37" fill="none" xmlns="http://www.w3.org/2000/svg"><path d="M216.928 36.25h-15M9.424 1.25h15" stroke="#2E3D54"/><path d="M225.217 9.11c-3.777-.22-4.903-1.507-5.325-5.326-.2 3.845-1.323 5.076-5.326 5.325 3.864.149 5.072 1.469 5.326 5.326.45-3.688 1.599-4.905 5.325-5.326zM11.65 27.324C7.873 27.106 6.748 25.818 6.325 22c-.2 3.845-1.322 5.076-5.325 5.325 3.863.149 5.071 1.469 5.325 5.325.451-3.688 1.6-4.904 5.325-5.325z" fill="#2E3D54" stroke="#2E3D54" stroke-width=".5"/><path d="M222.426 29.752v-15M222.676 30h-5.6l-.4.4V36M220.176 27V17M13.676 3.5h10M3.926 6.748v15M3.676 7h5.6l.4-.4V1" stroke="#2E3D54"/><path d="M13.675 3.5h-7.5v8M6.176 10.5v10" stroke="#2E3D54"/><path stroke="#2E3D54" d="M6.176 3.5h214v30h-214z"/></svg>